<?xml version="1.0" encoding="UTF-8"?>
<svg xmlns="http://www.w3.org/2000/svg" xmlns:xlink="http://www.w3.org/1999/xlink" width="400px" height="368px" viewBox="0 0 399 368" version="1.1">
<g id="surface1">
<path style=" stroke:none;fill-rule:nonzero;fill:rgb(90.196078%,90.196078%,90.196078%);fill-opacity:1;" d="M 183.324219 202.589844 C 183.25 202.589844 183.207031 202.589844 183.191406 202.585938 L 174.652344 202.589844 L 174.652344 201.328125 L 183.222656 201.328125 C 183.417969 201.335938 187.464844 201.449219 191.195312 196.917969 C 196.753906 190.167969 201.316406 173.453125 191.5 132.167969 C 178.296875 76.65625 189.308594 27.613281 194.652344 9.105469 C 195.1875 7.25 194.820312 5.25 193.65625 3.707031 C 192.496094 2.164062 190.679688 1.257812 188.75 1.261719 L 61.261719 1.261719 C 59.292969 1.261719 57.449219 2.203125 56.289062 3.792969 C 54.023438 6.914062 50.917969 12.90625 48.972656 23.742188 L 47.734375 23.519531 C 49.71875 12.449219 52.929688 6.277344 55.269531 3.054688 C 56.667969 1.136719 58.890625 0.00390625 61.261719 0 L 188.75 0 C 191.074219 -0.00390625 193.265625 1.089844 194.664062 2.949219 C 196.0625 4.808594 196.507812 7.21875 195.863281 9.457031 C 190.542969 27.867188 179.59375 76.65625 192.722656 131.878906 C 202.679688 173.742188 197.890625 190.820312 192.125 197.773438 C 188.320312 202.359375 184.128906 202.589844 183.324219 202.589844 Z M 183.324219 202.589844 "/>
<path style=" stroke:none;fill-rule:nonzero;fill:rgb(80%,80%,80%);fill-opacity:1;" d="M 160.351562 225.589844 C 160.28125 225.589844 160.234375 225.589844 160.21875 225.585938 L 151.683594 225.589844 L 151.683594 224.328125 L 160.25 224.328125 C 160.449219 224.335938 164.496094 224.449219 168.226562 219.917969 C 173.78125 213.167969 178.34375 196.453125 168.527344 155.167969 C 155.328125 99.65625 166.335938 50.613281 171.683594 32.105469 C 172.21875 30.25 171.847656 28.25 170.6875 26.707031 C 169.527344 25.164062 167.707031 24.257812 165.777344 24.261719 L 38.289062 24.261719 C 36.324219 24.261719 34.476562 25.203125 33.316406 26.792969 C 31.054688 29.914062 27.945312 35.90625 26 46.742188 L 24.761719 46.519531 C 26.75 35.449219 29.957031 29.277344 32.300781 26.054688 C 33.695312 24.136719 35.921875 23.003906 38.289062 23 L 165.777344 23 C 168.101562 22.996094 170.292969 24.089844 171.691406 25.949219 C 173.09375 27.808594 173.535156 30.21875 172.890625 32.457031 C 167.574219 50.867188 156.621094 99.65625 169.753906 154.878906 C 179.707031 196.742188 174.921875 213.820312 169.152344 220.773438 C 165.351562 225.359375 161.15625 225.589844 160.351562 225.589844 Z M 160.351562 225.589844 "/>
<path style=" stroke:none;fill-rule:nonzero;fill:rgb(24.705882%,23.921569%,33.72549%);fill-opacity:1;" d="M 137.378906 248.589844 C 137.308594 248.589844 137.265625 248.589844 137.25 248.585938 L 11.726562 248.589844 C 9.273438 248.589844 6.976562 247.375 5.597656 245.34375 C 4.21875 243.308594 3.9375 240.722656 4.847656 238.441406 C 9.402344 227.050781 15.535156 199.714844 5.433594 144.652344 C -6.492188 79.636719 4.183594 56.136719 9.328125 49.054688 C 10.726562 47.136719 12.949219 46.003906 15.320312 46 L 142.808594 46 C 145.132812 45.996094 147.324219 47.089844 148.722656 48.949219 C 150.121094 50.808594 150.566406 53.21875 149.921875 55.457031 C 144.601562 73.867188 133.648438 122.65625 146.78125 177.878906 C 156.738281 219.742188 151.949219 236.820312 146.183594 243.773438 C 142.378906 248.359375 138.1875 248.589844 137.378906 248.589844 Z M 15.320312 47.261719 C 13.351562 47.261719 11.507812 48.203125 10.347656 49.792969 C 5.296875 56.746094 -5.167969 79.886719 6.671875 144.425781 C 16.320312 197.023438 11.640625 224.839844 6.015625 238.910156 C 5.246094 240.796875 5.476562 242.945312 6.632812 244.621094 C 7.773438 246.316406 9.683594 247.328125 11.726562 247.328125 L 137.28125 247.328125 C 137.476562 247.339844 141.523438 247.449219 145.253906 242.917969 C 150.8125 236.167969 155.375 219.453125 145.558594 178.167969 C 132.355469 122.65625 143.367188 73.613281 148.710938 55.105469 C 149.246094 53.25 148.878906 51.25 147.714844 49.707031 C 146.554688 48.164062 144.738281 47.257812 142.808594 47.261719 Z M 15.320312 47.261719 "/>
<path style=" stroke:none;fill-rule:nonzero;fill:rgb(0%,69.019608%,100%);fill-opacity:1;" d="M 121.121094 102.710938 L 21.058594 102.710938 C 18.277344 102.710938 16.023438 100.457031 16.023438 97.671875 C 16.023438 94.886719 18.277344 92.628906 21.058594 92.628906 L 121.121094 92.628906 C 123.902344 92.628906 126.15625 94.886719 126.15625 97.671875 C 126.15625 100.457031 123.902344 102.710938 121.121094 102.710938 Z M 121.121094 102.710938 "/>
<path style=" stroke:none;fill-rule:nonzero;fill:rgb(80%,80%,80%);fill-opacity:1;" d="M 121.121094 124.136719 L 21.058594 124.136719 C 18.277344 124.136719 16.023438 121.878906 16.023438 119.097656 C 16.023438 116.3125 18.277344 114.054688 21.058594 114.054688 L 121.121094 114.054688 C 123.902344 114.054688 126.15625 116.3125 126.15625 119.097656 C 126.15625 121.878906 123.902344 124.136719 121.121094 124.136719 Z M 121.121094 124.136719 "/>
<path style=" stroke:none;fill-rule:nonzero;fill:rgb(80%,80%,80%);fill-opacity:1;" d="M 121.121094 145.5625 L 21.058594 145.5625 C 18.277344 145.5625 16.023438 143.304688 16.023438 140.519531 C 16.023438 137.738281 18.277344 135.480469 21.058594 135.480469 L 121.121094 135.480469 C 123.902344 135.480469 126.15625 137.738281 126.15625 140.519531 C 126.15625 143.304688 123.902344 145.5625 121.121094 145.5625 Z M 121.121094 145.5625 "/>
<path style=" stroke:none;fill-rule:nonzero;fill:rgb(80%,80%,80%);fill-opacity:1;" d="M 128.675781 166.984375 L 28.609375 166.984375 C 25.828125 166.984375 23.574219 164.730469 23.574219 161.945312 C 23.574219 159.160156 25.828125 156.902344 28.609375 156.902344 L 128.675781 156.902344 C 131.457031 156.902344 133.710938 159.160156 133.710938 161.945312 C 133.710938 164.730469 131.457031 166.984375 128.675781 166.984375 Z M 128.675781 166.984375 "/>
<path style=" stroke:none;fill-rule:nonzero;fill:rgb(80%,80%,80%);fill-opacity:1;" d="M 128.675781 188.410156 L 28.609375 188.410156 C 25.828125 188.410156 23.574219 186.152344 23.574219 183.371094 C 23.574219 180.585938 25.828125 178.328125 28.609375 178.328125 L 128.675781 178.328125 C 131.457031 178.328125 133.710938 180.585938 133.710938 183.371094 C 133.710938 186.152344 131.457031 188.410156 128.675781 188.410156 Z M 128.675781 188.410156 "/>
<path style=" stroke:none;fill-rule:nonzero;fill:rgb(0%,69.019608%,100%);fill-opacity:1;" d="M 68.257812 81.289062 L 21.058594 81.289062 C 18.277344 81.289062 16.023438 79.03125 16.023438 76.246094 C 16.023438 73.460938 18.277344 71.207031 21.058594 71.207031 L 68.257812 71.207031 C 71.039062 71.207031 73.292969 73.460938 73.292969 76.246094 C 73.292969 79.03125 71.039062 81.289062 68.257812 81.289062 Z M 68.257812 81.289062 "/>
<path style=" stroke:none;fill-rule:nonzero;fill:rgb(24.705882%,23.921569%,33.72549%);fill-opacity:1;" d="M 62.164062 222.957031 C 63.179688 218.648438 67.953125 217.238281 71.855469 217.394531 C 74.320312 217.5625 76.765625 217.949219 79.160156 218.554688 C 81.667969 219.113281 84.152344 219.78125 86.621094 220.484375 C 91.152344 221.777344 95.636719 223.34375 100.242188 224.355469 C 104.074219 225.195312 108.242188 225.691406 112.0625 224.527344 C 115.738281 223.410156 118.855469 220.667969 119.855469 216.875 C 120.796875 213.300781 119.503906 209.394531 116.046875 207.761719 C 112.890625 206.269531 108.90625 207.027344 107.34375 210.398438 C 105.582031 214.195312 107.34375 218.335938 110.132812 221.085938 C 111.71875 222.574219 113.457031 223.898438 115.320312 225.027344 C 117.207031 226.316406 119.308594 227.257812 121.527344 227.8125 C 125.167969 228.589844 129.503906 227.441406 131.382812 223.960938 C 131.796875 223.171875 132.050781 222.304688 132.117188 221.414062 C 132.230469 220.203125 130.339844 220.210938 130.230469 221.414062 C 129.914062 224.882812 125.855469 226.507812 122.824219 226.128906 C 120.777344 225.789062 118.820312 225.027344 117.082031 223.894531 C 115.402344 222.914062 113.808594 221.789062 112.324219 220.535156 C 109.75 218.304688 107.339844 214.636719 109.066406 211.160156 C 110.472656 208.328125 114.140625 208.355469 116.371094 210.179688 C 119.074219 212.394531 118.59375 216.410156 116.8125 219.035156 C 114.835938 221.945312 111.261719 223.164062 107.890625 223.296875 C 104.226562 223.4375 100.59375 222.597656 97.09375 221.601562 C 92.742188 220.363281 88.4375 218.980469 84.0625 217.816406 C 81.582031 217.15625 79.082031 216.558594 76.554688 216.09375 C 74.167969 215.566406 71.714844 215.394531 69.273438 215.589844 C 65.335938 216.042969 61.3125 218.339844 60.34375 222.453125 C 60.0625 223.636719 61.882812 224.140625 62.164062 222.957031 Z M 62.164062 222.957031 "/>
<path style=" stroke:none;fill-rule:nonzero;fill:rgb(94.901961%,94.901961%,94.901961%);fill-opacity:1;" d="M 255.054688 329.839844 C 255.164062 342.246094 256.070312 354.632812 257.773438 366.925781 C 257.832031 367.355469 257.898438 367.789062 257.957031 368.21875 L 374.007812 367.570312 C 374.347656 367.140625 374.683594 366.707031 375.007812 366.269531 C 376.09375 364.816406 377.109375 363.324219 378.039062 361.777344 C 382.519531 354.332031 384.574219 345.613281 382.515625 339.597656 L 382.480469 339.503906 C 382.035156 338.1875 381.335938 336.96875 380.421875 335.925781 C 375.734375 330.640625 366.261719 331.523438 357.660156 335.785156 C 365.375 327.332031 371.515625 316.664062 371.980469 307.144531 C 372.441406 297.855469 367.589844 291.222656 362.328125 285.585938 C 362.15625 285.398438 361.984375 285.21875 361.8125 285.035156 C 361.726562 284.941406 361.640625 284.855469 361.554688 284.761719 C 357.449219 280.464844 352.667969 276.230469 345.742188 276.742188 C 338.144531 277.304688 329.722656 283.675781 323.820312 291.097656 C 317.914062 298.515625 313.988281 306.941406 310.011719 315.167969 C 306.03125 323.386719 301.722656 331.816406 295.332031 338.839844 C 303.988281 327.878906 310.964844 315.40625 313.542969 303.277344 C 316.121094 291.148438 313.851562 279.496094 306.136719 273.785156 C 303.796875 272.101562 301.085938 271.007812 298.234375 270.589844 C 297.902344 270.535156 297.5625 270.492188 297.222656 270.449219 C 290.078125 269.636719 281.554688 272.109375 274.300781 278.019531 C 266.3125 284.53125 260.773438 294.179688 258.015625 303.335938 C 255.261719 312.496094 254.964844 321.316406 255.054688 329.839844 Z M 255.054688 329.839844 "/>
<path style=" stroke:none;fill-rule:nonzero;fill:rgb(100%,100%,100%);fill-opacity:1;" d="M 330.984375 367.8125 L 333.203125 367.800781 C 333.90625 367.359375 334.613281 366.921875 335.324219 366.492188 C 335.765625 366.214844 336.210938 365.945312 336.65625 365.671875 C 344.019531 361.171875 351.425781 356.851562 358.878906 352.71875 C 366.324219 348.582031 373.808594 344.636719 381.328125 340.878906 C 381.738281 340.699219 381.964844 340.25 381.863281 339.8125 C 381.855469 339.785156 381.84375 339.761719 381.828125 339.734375 C 381.722656 339.539062 381.488281 339.457031 381.144531 339.625 C 380.222656 340.089844 379.292969 340.550781 378.371094 341.027344 C 370.832031 344.847656 363.320312 348.855469 355.84375 353.058594 C 348.371094 357.257812 340.945312 361.644531 333.558594 366.214844 C 333.402344 366.308594 333.246094 366.410156 333.089844 366.503906 C 332.386719 366.941406 331.6875 367.375 330.984375 367.8125 Z M 330.984375 367.8125 "/>
<path style=" stroke:none;fill-rule:nonzero;fill:rgb(100%,100%,100%);fill-opacity:1;" d="M 302.371094 367.972656 L 303.742188 367.964844 C 304.050781 367.53125 304.355469 367.097656 304.664062 366.664062 C 311.9375 356.453125 319.207031 346.242188 326.476562 336.035156 C 338.378906 319.316406 350.277344 302.601562 362.175781 285.886719 C 362.246094 285.796875 362.296875 285.695312 362.328125 285.585938 C 362.429688 285.214844 362.160156 284.996094 361.8125 285.035156 C 361.515625 285.078125 361.25 285.246094 361.085938 285.5 C 354.414062 294.871094 347.742188 304.242188 341.070312 313.609375 C 329.230469 330.242188 317.390625 346.871094 305.550781 363.5 C 304.800781 364.554688 304.046875 365.617188 303.292969 366.671875 C 302.984375 367.105469 302.675781 367.539062 302.371094 367.972656 Z M 302.371094 367.972656 "/>
<path style=" stroke:none;fill-rule:nonzero;fill:rgb(100%,100%,100%);fill-opacity:1;" d="M 271.800781 359.992188 C 271.871094 362.308594 272.023438 364.585938 272.222656 366.84375 C 272.261719 367.277344 272.300781 367.707031 272.339844 368.140625 L 273.777344 368.132812 C 273.734375 367.699219 273.691406 367.269531 273.652344 366.835938 C 273.347656 363.574219 273.132812 360.277344 273.101562 356.890625 C 273.0625 347.496094 273.976562 338.125 275.832031 328.917969 C 277.800781 319 280.628906 309.277344 284.28125 299.855469 C 288.117188 289.917969 292.738281 280.300781 298.109375 271.101562 C 298.210938 270.953125 298.253906 270.769531 298.234375 270.589844 C 298.175781 270.179688 297.628906 270.058594 297.222656 270.449219 C 297.140625 270.527344 297.070312 270.617188 297.015625 270.710938 C 296.351562 271.855469 295.699219 273.003906 295.058594 274.152344 C 289.886719 283.402344 285.464844 293.050781 281.824219 303.007812 C 278.359375 312.460938 275.722656 322.199219 273.945312 332.113281 C 272.28125 341.308594 271.5625 350.648438 271.800781 359.992188 Z M 271.800781 359.992188 "/>
<path style=" stroke:none;fill-rule:nonzero;fill:rgb(24.705882%,23.921569%,33.72549%);fill-opacity:1;" d="M 131.535156 223.402344 C 131.046875 222.996094 130.851562 222.335938 131.039062 221.730469 C 131.226562 221.121094 131.757812 220.6875 132.390625 220.625 C 135.824219 220.292969 139.289062 220.648438 142.582031 221.671875 L 176.136719 232.046875 C 177.960938 232.613281 178.984375 234.550781 178.421875 236.382812 C 177.859375 238.210938 175.917969 239.234375 174.09375 238.667969 L 140.539062 228.292969 C 137.242188 227.277344 134.183594 225.617188 131.535156 223.402344 Z M 131.535156 223.402344 "/>
<path style=" stroke:none;fill-rule:nonzero;fill:rgb(100%,72.156863%,72.156863%);fill-opacity:1;" d="M 269.074219 266.503906 C 267.230469 265.730469 265.820312 264.175781 265.230469 262.261719 C 264.640625 260.347656 264.925781 258.269531 266.011719 256.589844 L 260.257812 226.472656 L 274.917969 225.328125 L 275.800781 254.785156 C 278.566406 256.84375 279.355469 260.648438 277.636719 263.636719 C 275.921875 266.628906 272.242188 267.859375 269.074219 266.503906 Z M 269.074219 266.503906 "/>
<path style=" stroke:none;fill-rule:nonzero;fill:rgb(0%,69.019608%,100%);fill-opacity:1;" d="M 259.355469 250.960938 L 244.425781 181.34375 C 243.148438 175.390625 246.933594 169.527344 252.882812 168.246094 C 258.828125 166.96875 264.683594 170.757812 265.960938 176.714844 L 280.890625 246.332031 C 281.21875 247.863281 280.246094 249.371094 278.714844 249.699219 L 262.71875 253.140625 C 261.1875 253.46875 259.683594 252.492188 259.355469 250.960938 Z M 259.355469 250.960938 "/>
<path style=" stroke:none;fill-rule:nonzero;fill:rgb(100%,72.156863%,72.156863%);fill-opacity:1;" d="M 234.851562 360.480469 L 227.136719 360.480469 L 223.464844 330.679688 L 234.851562 330.679688 Z M 234.851562 360.480469 "/>
<path style=" stroke:none;fill-rule:nonzero;fill:rgb(18.431373%,18.039216%,25.490196%);fill-opacity:1;" d="M 221.625 358.269531 L 236.503906 358.269531 L 236.503906 367.652344 L 212.253906 367.652344 C 212.253906 362.472656 216.449219 358.269531 221.625 358.269531 Z M 221.625 358.269531 "/>
<path style=" stroke:none;fill-rule:nonzero;fill:rgb(100%,72.156863%,72.156863%);fill-opacity:1;" d="M 260.652344 359.847656 L 252.9375 359.847656 L 249.265625 330.050781 L 260.65625 330.050781 Z M 260.652344 359.847656 "/>
<path style=" stroke:none;fill-rule:nonzero;fill:rgb(18.431373%,18.039216%,25.490196%);fill-opacity:1;" d="M 247.425781 357.640625 L 262.304688 357.640625 L 262.304688 367.023438 L 238.058594 367.023438 C 238.058594 361.839844 242.253906 357.640625 247.425781 357.640625 Z M 247.425781 357.640625 "/>
<path style=" stroke:none;fill-rule:nonzero;fill:rgb(18.431373%,18.039216%,25.490196%);fill-opacity:1;" d="M 225.605469 354.921875 C 225.023438 354.441406 224.65625 353.746094 224.589844 352.992188 L 215.617188 254.199219 C 215.546875 253.421875 215.800781 252.652344 216.3125 252.070312 C 216.828125 251.484375 217.558594 251.136719 218.332031 251.109375 L 263.316406 249.417969 C 264.105469 249.390625 264.867188 249.6875 265.425781 250.246094 C 265.984375 250.804688 266.285156 251.570312 266.253906 252.355469 L 262.660156 350.769531 C 262.605469 352.195312 261.503906 353.359375 260.085938 353.488281 L 251.015625 354.316406 C 250.253906 354.382812 249.5 354.144531 248.917969 353.648438 C 248.339844 353.152344 247.984375 352.441406 247.933594 351.679688 L 243.769531 289.160156 C 243.761719 288.917969 243.660156 288.6875 243.484375 288.519531 C 243.304688 288.355469 243.070312 288.265625 242.828125 288.277344 L 242.824219 288.277344 C 242.582031 288.269531 242.34375 288.355469 242.167969 288.523438 C 241.992188 288.691406 241.890625 288.921875 241.886719 289.167969 L 238.160156 352.109375 C 238.082031 353.5 237 354.628906 235.613281 354.761719 L 227.691406 355.554688 C 226.9375 355.632812 226.1875 355.402344 225.605469 354.921875 Z M 225.605469 354.921875 "/>
<path style=" stroke:none;fill-rule:nonzero;fill:rgb(100%,72.156863%,72.156863%);fill-opacity:1;" d="M 258.367188 137.976562 C 258.367188 146.523438 251.445312 153.453125 242.910156 153.453125 C 234.371094 153.453125 227.453125 146.523438 227.453125 137.976562 C 227.453125 129.429688 234.371094 122.5 242.910156 122.5 C 251.445312 122.5 258.367188 129.429688 258.367188 137.976562 Z M 258.367188 137.976562 "/>
<path style=" stroke:none;fill-rule:nonzero;fill:rgb(0%,69.019608%,100%);fill-opacity:1;" d="M 213.144531 254.867188 C 212.585938 254.234375 212.34375 253.382812 212.480469 252.550781 C 215.335938 235.179688 213.726562 209.652344 211.875 191.296875 C 210.890625 181.382812 215.269531 171.699219 223.355469 165.898438 L 231.425781 158.972656 C 231.964844 158.515625 232.648438 158.273438 233.351562 158.289062 L 253.40625 158.863281 C 254.128906 158.882812 254.816406 159.179688 255.328125 159.695312 L 258.425781 166.566406 L 258.457031 166.589844 C 265.957031 172.109375 270.191406 181.027344 269.730469 190.339844 L 266.78125 251.421875 C 266.703125 252.894531 265.515625 254.0625 264.042969 254.117188 L 215.367188 255.832031 C 215.335938 255.832031 215.304688 255.832031 215.273438 255.832031 C 214.457031 255.832031 213.679688 255.480469 213.144531 254.867188 Z M 213.144531 254.867188 "/>
<path style=" stroke:none;fill-rule:nonzero;fill:rgb(100%,72.156863%,72.156863%);fill-opacity:1;" d="M 154.757812 229.378906 C 154.707031 227.375 155.546875 225.453125 157.046875 224.128906 C 158.550781 222.804688 160.558594 222.214844 162.539062 222.519531 L 187.625 204.941406 L 194.667969 217.863281 L 168.1875 230.726562 C 167.441406 234.09375 164.300781 236.371094 160.875 236.027344 C 157.445312 235.683594 154.816406 232.824219 154.757812 229.378906 Z M 154.757812 229.378906 "/>
<path style=" stroke:none;fill-rule:nonzero;fill:rgb(0%,69.019608%,100%);fill-opacity:1;" d="M 175.871094 232.433594 C 175.125 232.320312 174.457031 231.914062 174.015625 231.308594 L 164.332031 218.101562 C 163.410156 216.835938 163.683594 215.0625 164.941406 214.136719 L 222.269531 172.003906 C 227.171875 168.398438 234.066406 169.457031 237.664062 174.367188 C 241.265625 179.277344 240.207031 186.179688 235.304688 189.785156 L 177.972656 231.917969 C 177.492188 232.273438 176.90625 232.464844 176.304688 232.464844 C 176.160156 232.464844 176.011719 232.457031 175.871094 232.433594 Z M 175.871094 232.433594 "/>
<path style=" stroke:none;fill-rule:nonzero;fill:rgb(18.431373%,18.039216%,25.490196%);fill-opacity:1;" d="M 243.699219 151.753906 C 245.75 149.238281 245.527344 145.402344 243.882812 142.605469 C 242.234375 139.808594 239.441406 137.878906 236.570312 136.375 C 233.695312 134.867188 230.644531 133.683594 227.9375 131.890625 C 225.234375 130.101562 225.351562 122.511719 224.632812 119.34375 L 226.347656 119.917969 C 225.6875 119.070312 225.476562 116.574219 224.816406 115.726562 C 226.757812 115.921875 228.25 117.765625 230.191406 117.957031 L 229.070312 114.945312 C 235.726562 114.535156 239.863281 119.167969 246.519531 118.753906 C 249.816406 118.550781 253.398438 118.421875 256.105469 120.3125 C 258.460938 121.957031 259.65625 124.800781 260.4375 127.566406 C 262.117188 133.503906 262.378906 140.15625 259.476562 145.601562 C 256.574219 151.046875 249.886719 154.714844 244.046875 152.75 Z M 243.699219 151.753906 "/>
<path style=" stroke:none;fill-rule:nonzero;fill:rgb(24.705882%,23.921569%,33.72549%);fill-opacity:1;" d="M 158.835938 368 L 398.613281 368 C 398.960938 368 399.242188 367.71875 399.242188 367.371094 C 399.242188 367.023438 398.960938 366.738281 398.613281 366.738281 L 158.835938 366.738281 C 158.488281 366.738281 158.207031 367.023438 158.207031 367.371094 C 158.207031 367.71875 158.488281 368 158.835938 368 Z M 158.835938 368 "/>
</g>
</svg>
